Patient4_TMGait_0pt4_01_left_36_EMG.mot
version=1
nRows=40
nColumns=33
inDegrees=no
endheader
time	1LAddLong	2LGlutMax	3LGlutMed	4LIliopsoas	5LSemiMemb	6LBicFemLong	7LRecFem	8LVastMed	9LVastLat	10LGasMed	11LTibAnt	12lTibPost	13LPeroneusLong	14LSol	15LExtDigLong	16LFlexDigLong	17RAddLong	18RGlutMax	19RGlutMed	20RIliopsoas	21RSemiMemb	22RBicFemLong	23RRecFem	24RVastMed	25RVastLat	26RGasMed	27RTibAnt	28RTibPost	29RPeroneusLong	30RSol	31RExtDigLong	32RFlexDigLong
45.79	0.001984	-0.074768	-0.15839	0.001068	-0.01358	-0.025177	0.072021	0.006104	-0.026398	0.037384	0.015106	0.018311	-0.048065	0.10117	-0.049133	0.10269	-0.025024	-0.48111	0.39917	0.03891	0.17685	0.28625	-0.18112	0.22217	-0.15381	-0.003815	0.004883	-0.00946	-0.072937	-0.060577	0.000305	-0.002441
45.791	0.004578	-0.12253	-0.13184	0.006409	0.000153	-0.04425	0.092926	0.004272	-0.029602	-0.26581	0.019226	0.04303	-0.041504	0.3305	-0.041504	0.023193	-0.026245	-0.49545	0.23132	0.034485	0.14969	0.1236	-0.23361	0.071564	-0.18219	-0.00351	-0.041656	-0.00946	-0.024109	-0.009613	0.000458	0.000305
45.792	0.009003	-0.084076	-0.13062	0.000458	0.000916	0.041046	0.10574	0.004425	-0.024109	-0.41168	0.017242	0.0383	-0.10712	0.41779	-0.04303	-0.02594	0.009155	-0.50247	0.1442	-0.024719	0.059052	-0.092316	-0.66177	-0.071259	-0.18219	-0.004578	-0.068817	-0.006256	0.034637	-0.015411	0.010223	-0.003357
45.793	0.006104	-0.041962	-0.076141	-0.001831	-0.022278	0.08606	0.12421	0.005188	-0.027008	-0.31937	0.003357	0.031433	-0.067902	0.40894	-0.03067	-0.026245	0.074921	-0.52612	0.25696	0.010223	0.093231	-0.29236	-0.56656	-0.10468	-0.16068	-0.007782	-0.053101	-0.007629	0.01236	-0.053253	0.000763	-0.003357
45.794	0.008698	-0.028839	-0.053253	0.001373	-0.036926	0.068665	0.093689	0.007324	-0.013885	-0.12665	0.010834	0.004883	-0.005493	0.072479	-0.009766	-0.022278	0.13473	-0.4715	0.28717	0.0914	0.16449	-0.37643	-0.56244	-0.10971	-0.004883	-0.00946	-0.032959	-0.015717	0.018616	-0.014343	-0.005798	-0.006866
45.795	0.008087	0.028839	-0.039215	0.009613	-0.030975	-0.00885	0.078583	0.001526	-0.010376	-0.025635	0.001526	0.009155	0.009613	-0.10025	0	-0.017395	0.15228	-0.40009	0.21301	0.03418	-0.064392	-0.23407	-0.23575	-0.19409	0.15533	-0.007324	-0.033722	-0.009766	0.039215	-0.011139	-0.000305	-0.005798
45.796	0.012512	0.0354	-0.00885	-0.03067	-0.033875	-0.076141	0.078278	-0.002136	-0.006409	0.18677	0.005646	0.039825	0.02533	-0.077972	-0.001526	-0.006104	0.20462	-0.39414	0.16235	-0.008087	-0.24765	0.080872	0.051575	-0.42221	0.19745	-0.011139	-0.019226	-0.01358	0.030823	-0.011444	-0.000305	-0.000916
45.797	0.023651	0.066071	0.009766	-0.007019	-0.014496	-0.11871	0.10696	0.077209	0.018768	0.3833	-0.008545	0.043335	0.10559	-0.1294	0.000916	-0.004272	0.13626	-0.40298	0.12711	-0.010223	-0.25497	0.33142	0.14679	-0.54871	0.091858	-0.012512	-0.00885	-0.013428	0.020294	-0.026245	-0.000763	0
45.798	0.018616	0.10117	0.031128	0.005493	-0.025787	-0.15701	0.093231	0.006256	0.010986	0.39551	0.007019	-0.000153	0.08667	-0.11597	0.002441	0.007477	0.099182	-0.44647	0.11887	0.01236	-0.32516	0.31052	0.072937	-0.50507	0.022125	-0.011292	0.010834	-0.014954	0.016785	-0.036011	0	-0.003052
45.799	0.009308	0.07843	0.04776	0.011139	0.008545	-0.096588	0.11704	0.011139	-0.00412	0.34683	0.006866	-0.017853	0.076294	-0.11154	0.00946	0.010834	0.15457	-0.50507	0.030518	0.00351	-0.44525	0.15259	0.029297	-0.4599	-0.057373	-0.011749	0.021973	-0.000916	-0.01358	-0.051575	0.000305	-0.006714
45.8	0.00824	0.075989	0.074768	0.019226	0.011902	0.027008	0.15167	0.007935	-0.03479	0.45273	0.00351	-0.16327	0.098572	-0.26016	0.027618	0.028229	0.093384	-0.48294	-0.083313	0.079651	-0.12466	0.17395	-0.039063	-0.21545	-0.03479	-0.004578	0.029602	-0.005951	-0.003052	-0.033875	0	-0.00946
45.801	-0.002747	0.069885	0.090485	0.006104	-0.00824	0.061035	0.13321	0.005188	-0.032654	0.36636	0.005646	-0.019379	0.12421	-0.27863	0.039368	0.016785	-0.071259	-0.46295	-0.37125	0.097504	0.42129	0.2626	-0.20371	0.28351	0.076599	-0.004578	-0.014954	-0.004883	0.010071	-0.036621	0.001068	-0.024109
45.802	0.005798	0.066376	0.11765	0.007782	-0.001678	0.112	0.12955	0.007019	-0.029907	0.066681	0.001678	0.22369	0.26032	-0.22034	0.032043	0.040283	-0.18463	-0.53833	-0.33814	0.072327	0.49118	0.25299	-0.48141	0.34729	0.11841	-0.005341	-0.004272	-0.002594	0.001678	-0.02655	0.002747	-0.014343
45.803	0.012817	0.042419	0.168	-0.000763	-0.019226	0.13763	0.13489	0.012054	-0.033875	0.069275	-0.009003	0.045776	0.22385	-0.091553	0.042877	0.033264	-0.20721	-0.54779	-0.055084	0.046387	0.46539	0.22186	-0.5658	0.4773	0.18509	-0.007477	-0.007324	-0.000305	-0.015411	-0.039368	0.002289	-0.018005
45.804	0.005493	0.065155	0.19943	0.004425	-0.015411	0.1358	0.10437	0.009613	-0.019836	0.19714	-0.010223	-0.13718	-0.067596	0.35217	0.045776	0.011902	-0.11551	-0.47943	-0.007477	0.047607	0.48706	0.22598	-0.39856	0.35629	0.44281	-0.00824	0.010223	-0.005493	-0.041046	-0.038147	-0.000458	-0.005951
45.805	0.006561	0.030975	0.2179	0.003662	-0.069275	0.10834	0.093994	-0.002136	-0.013733	0.080414	-0.010681	-0.098419	-0.47195	0.53513	0.064392	-0.008698	-0.10803	-0.36972	-0.012207	0.002289	0.29495	0.12634	-0.11307	0.74539	0.46845	-0.010376	0.00351	-0.002441	-0.063019	-0.031891	-0.001678	-0.010834
45.806	0.007019	0.020905	0.23789	0.014801	-0.041962	0.074768	0.066223	0.005341	-0.027466	-0.5217	0.002747	-0.095367	-0.27374	0.42389	-0.002747	-0.12878	-0.083466	-0.36392	0.09552	-0.023956	0.18372	0.001984	0.089417	0.86136	0.31311	-0.005493	0.001526	-0.002289	-0.053101	-0.031128	-0.000916	-0.007019
45.807	0.009003	0.024261	0.25207	0.016022	0.021057	0.016937	0.072479	0.006104	-0.021362	-1.0822	-0.001221	-0.053864	-0.084991	0.2533	-0.044098	-0.055542	-0.059814	-0.35019	0.17914	-0.009003	0.1326	-0.083466	0.11887	0.74722	0.25955	-0.007629	0.032349	-0.007324	-0.070496	-0.039063	-0.004578	-0.006256
45.808	0.003662	0.03006	0.28763	0.011597	0.014191	-0.014954	0.077667	0.006714	-0.014343	-0.6102	-0.004578	0.39734	-0.006104	-0.17151	-0.048676	-0.004272	-0.035706	-0.43289	0.15564	-0.094147	0.089417	-0.15686	0.13718	0.50751	0.18204	-0.007324	0.03418	-0.006866	-0.069275	-0.040131	0.002289	0.002747
45.809	-0.002594	0.053864	0.32303	0.004272	0.018463	-0.003967	0.075073	0.010681	-0.014038	-0.23789	0.005493	0.13809	-0.063171	-0.32867	-0.038605	-0.011139	-0.009918	-0.43549	0.034943	-0.059662	0.071869	-0.20248	0.055847	0.18082	0.064697	-0.003052	0.014038	-0.007782	-0.080261	-0.039673	0.000458	0.000763
45.81	-0.008698	0.067749	0.31204	0.001373	0.015106	-0.039368	0.05188	0.005951	0.003662	0.35202	0.003815	0.008698	-0.14404	-0.3067	-0.05661	-0.033264	0.001526	-0.39398	0.097198	-0.076447	0.20462	-0.2385	-0.2417	-0.11093	0.071564	-0.010834	0.007782	-0.005035	-0.036163	-0.021667	0.004425	-0.000763
45.811	-0.007019	0.028229	0.36423	-0.000153	-0.010681	-0.00473	0.056	0.002136	0	1.3031	0.005493	-0.070953	-0.10696	0.13077	-0.030212	-0.016785	0.040283	-0.27481	0.020905	-0.046387	0.21973	-0.25604	-0.51163	-0.32333	-0.066681	-0.004272	-0.013885	-0.010529	0.00885	-0.000763	-0.00473	-0.005493
45.812	0.005341	0.072937	0.37582	0.006104	-0.02594	-0.054932	0.029449	0.007629	-0.006409	1.474	-0.00351	-0.005035	-0.061493	0.27374	0.001678	0.02243	0.093384	-0.32913	-0.055389	0.06958	0.14023	-0.32837	-0.36148	-0.52307	-0.34195	-0.003662	-0.049438	-0.009155	0.0177	-0.005188	0.002899	-0.006409
45.813	0.002594	0.14069	0.38788	0.005951	-0.01297	-0.097351	0.031738	0.004578	-0.00061	1.1018	-0.010071	-0.002899	0.013885	0.29083	0.006104	0.052948	0.14328	-0.33081	0.19745	0.063171	0.12543	-0.42755	-0.26321	-0.84854	-0.054932	-0.00473	-0.057678	-0.010223	-0.033417	-0.059814	0	-0.005646
45.814	0.014801	0.11169	0.39566	0.006866	0.022583	-0.15732	-0.002289	0	0.012054	0.5719	-0.000916	0.006561	-0.010834	-0.053711	-0.025024	-0.003052	0.14236	-0.36789	0.29831	0.01709	0.11612	-0.43045	-0.28839	-0.96527	0.59479	-0.010986	-0.046387	-0.00473	-0.032959	-0.034637	0.005341	-0.003662
45.815	0.02594	0.18158	0.37231	0.014343	0.063782	-0.21408	0.001526	-0.002136	0.02121	0.4361	0.001221	-0.16937	-0.067749	-0.45227	-0.053864	-0.59006	0.15625	-0.28946	0.074005	0.021515	0.080109	-0.35645	-0.22659	-0.76569	0.70557	-0.013885	-0.044556	-0.001221	-0.00824	-0.031433	0.000916	-0.009003
45.816	0.035248	0.13641	0.34225	-0.002136	0.098114	-0.17303	0.028839	0	0.001373	-0.43594	0.011444	0.14084	-0.19745	-0.46158	-0.044403	-0.73868	0.13489	-0.26169	0.05249	-0.074615	0.014038	-0.16785	-0.10712	-0.64117	0.50262	-0.00824	0.020294	-0.008545	-0.045776	-0.047913	0.000916	-0.006561
45.817	0.031433	0.096436	0.41336	-0.007172	-0.00061	-0.14114	0.029144	-0.00824	-0.014343	-1.3954	0.005035	0.21286	-0.19257	0.001221	0.003967	1.1279	0.076752	-0.27786	0.14954	-0.23712	-0.20508	0.083771	-0.18402	-0.38589	0.31494	-0.002289	0.052185	-0.002289	-0.04837	-0.025482	0.000458	-0.00885
45.818	0.03006	0.11795	0.41824	0.006866	-0.02533	-0.041809	0.066528	0.00061	-0.037842	-1.1064	-0.003052	-0.027618	-0.057373	0.12161	0.016479	-0.54291	0.037994	-0.23239	0.002747	-0.19287	-0.28641	0.22095	-0.087433	-0.34409	0.12955	-0.00473	0.016937	-0.005035	0.042267	-0.014954	0.001221	-0.008698
45.819	0.012512	0.11002	0.45593	-0.008392	0.031891	0.036774	0.07843	0.006714	-0.068207	-0.57602	0.000916	0.058594	-0.044098	0.13428	-0.015259	0.39017	0.011902	-0.19379	-0.039673	-0.005341	-0.083618	0.16968	-0.037537	-0.29587	0.27756	-0.001373	0.066528	-0.005035	-0.006409	-0.036926	-0.000153	-0.013123
45.82	0.012665	0.11612	0.44769	0.007629	0.069885	0.18433	0.051727	0.010376	-0.061646	-0.49408	0.001068	0.004578	-0.014648	0.29816	-0.007019	-0.053864	-0.05249	-0.10376	-0.17197	0.1532	0.27832	0.15228	-0.11993	-0.1326	0.6279	-0.013885	0.054016	0.005035	-0.041351	-0.018921	-0.001526	-0.013123
45.821	0.001221	0.11368	0.44144	-0.015259	0.033417	0.11078	0.028839	0.009308	-0.064087	-0.85815	-0.002594	-0.04364	-0.028076	0.014801	-0.025482	0.25284	-0.082703	-0.16373	-0.19592	0.29068	0.56213	0.13428	-0.31403	0.022736	0.8609	-0.009613	0.03006	-0.006104	-0.053864	-0.017242	0.002594	-0.013733
45.822	0.005493	0.11551	0.45609	-0.001831	0.001068	0.037079	0.000458	0.007782	-0.05661	-0.7579	0.010376	-0.75241	-0.083771	-0.53223	-0.057678	0.44266	-0.085602	-0.17425	-0.19165	0.19623	0.31113	0.048065	-0.42053	0.035858	0.31311	-0.003052	0.039825	-0.004272	-0.036774	-0.065308	0.000458	-0.012512
45.823	0.011444	0.15198	0.4422	0.009308	-0.009308	0.000763	-0.018463	0.001373	-0.0383	-0.43518	0.016174	0.61478	-0.082397	-0.75531	-0.052338	0.17487	-0.085754	-0.13107	-0.11108	0.012207	0.18295	0.036926	-0.24078	-0.062866	-0.31586	-0.004578	0.03418	0	-0.032654	-0.063171	-0.00061	-0.008545
45.824	0.013123	0.12497	0.42572	0.001984	-0.002441	0.026703	-0.028992	0.004578	-0.038757	-0.30395	-0.002289	0.36102	0.014954	-0.45624	-0.01297	0.023956	-0.050964	-0.061493	-0.023499	-0.11459	0.12466	0.12268	-0.02533	-0.015259	-0.70679	-0.002441	0.015717	0.001221	-0.036926	-0.056305	0.003815	-0.010986
45.825	0.009308	0.095062	0.41748	0.003357	0.093384	0.056915	-0.00412	0.006409	-0.033569	-0.25711	-0.004425	-0.013275	0.01297	0.1973	0.009918	-0.015564	0.000305	-0.054016	-0.021667	-0.20187	0.18738	-0.018005	-0.012817	0.093689	-0.77362	0.000153	0.016937	0.001526	0.000153	-0.000458	0.005493	-0.005493
45.826	0.00946	0.076904	0.42816	-0.001221	0.053406	0.079956	-0.031433	0.008392	-0.02243	-0.39505	0.005493	-0.14236	0.021057	0.74341	0.003662	-0.020599	0.047455	-0.069275	-0.033722	-0.16953	0.13138	-0.24918	0.003357	0.20432	-0.64911	-0.005188	0.029907	0.001068	-0.04715	-0.006866	0.003357	-0.009003
45.827	0.007782	0.10574	0.45441	0.001678	0.022583	0.090637	-0.047607	0.007629	-0.006409	-0.43747	0.001831	-0.10529	0.039215	0.48782	0.019989	-0.018616	0.052032	-0.056763	-0.2681	-0.040436	-0.052338	-0.20172	-0.11993	0.043488	-0.66727	-0.003357	0.00824	-0.002899	-0.027771	-0.015106	-0.001831	-0.012817
45.828	0.003052	0.11185	0.46173	0.014801	-0.022583	0.067139	-0.070343	0.006866	-0.00473	-0.29648	0.005951	-0.15686	0.033264	0.20218	0.050049	0.023193	-0.005188	-0.023193	-0.32989	0.12894	-0.31479	-0.023041	-0.17349	0.054169	-0.47104	-0.005341	0.001373	-0.000153	-0.010681	-0.023804	0.001831	-0.006866
45.829	0.002289	0.12589	0.45944	0.019684	-0.042114	0.032959	-0.049286	0.006104	-0.009766	-0.072479	0.000305	0.092468	-0.07843	-0.24246	0.04837	-0.049591	-0.077972	-0.045013	-0.32227	0.22354	-0.15472	0.13565	-0.13901	0.23727	-0.39459	-0.006866	-0.010681	0.001678	-0.019379	-0.020447	0.001831	-0.001526
